<?xml version="1.0" standalone="no"?>
<!DOCTYPE svg PUBLIC "-//W3C//DTD SVG 20010904//EN"
 "http://www.w3.org/TR/2001/REC-SVG-20010904/DTD/svg10.dtd">
<svg version="1.0" xmlns="http://www.w3.org/2000/svg"
 width="512.000000pt" height="512.000000pt" viewBox="0 0 512.000000 512.000000"
 preserveAspectRatio="xMidYMid meet">
<metadata>
Created by potrace 1.11, written by Peter Selinger 2001-2013
</metadata>
<g transform="translate(0.000000,512.000000) scale(0.100000,-0.100000)"
fill="#000000" stroke="none">
<path d="M0 4951 l0 -168 83 -6 c45 -4 99 -4 119 -1 76 13 114 -50 68 -109
-15 -19 -20 -39 -19 -74 1 -27 -3 -58 -9 -69 -6 -12 -9 -37 -6 -56 7 -42 -9
-78 -36 -78 -11 0 -20 4 -20 9 0 21 -33 41 -67 41 -31 0 -36 4 -50 40 -11 28
-21 39 -31 35 -7 -3 -18 -5 -23 -5 -5 0 -9 -50 -9 -110 0 -106 1 -110 19 -100
39 20 144 0 165 -32 20 -32 -2 -65 -64 -94 -45 -22 -61 -35 -65 -56 -4 -14
-17 -34 -31 -42 l-24 -16 0 -2030 0 -2030 2450 0 2449 0 -5 53 c-5 57 -1 54
16 -10 l11 -43 99 0 100 0 0 2560 0 2560 -720 0 -720 0 -10 -22 c-20 -50 -43
-65 -102 -71 -54 -5 -57 -4 -48 13 5 10 21 21 35 24 18 5 25 13 25 31 l0 25
-647 0 -648 -1 25 -22 c49 -43 55 -55 35 -77 -20 -22 -74 -27 -105 -10 -34 18
-42 46 -25 80 l16 30 -465 0 -464 0 -7 -36 c-7 -38 -20 -66 -44 -96 -7 -10
-11 -24 -7 -33 8 -23 -20 -30 -40 -10 -13 13 -27 15 -64 10 -37 -5 -51 -3 -64
10 -32 32 -15 67 47 93 15 6 27 16 27 21 0 15 -35 31 -65 31 -20 0 -28 -7 -37
-30 -19 -56 -72 -66 -103 -20 -12 19 -29 30 -43 30 -12 0 -25 7 -28 15 -5 12
-67 15 -440 15 l-434 0 0 -169z m4470 78 c0 -5 -7 -9 -15 -9 -15 0 -20 12 -9
23 8 8 24 -1 24 -14z m-671 -12 c6 -8 8 -17 4 -20 -7 -8 -33 11 -33 24 0 13
16 11 29 -4z m-989 -56 c5 -11 7 -28 3 -38 -9 -28 -45 -63 -63 -63 -27 0 -60
30 -60 55 0 50 97 87 120 46z m-710 -1 c8 0 28 1 45 2 25 3 33 -3 50 -34 11
-21 24 -38 28 -38 5 0 30 18 56 40 54 46 83 50 141 20 27 -14 45 -32 55 -56
18 -44 19 -90 3 -100 -15 -9 20 -21 64 -23 22 -1 27 4 30 25 4 38 28 50 63 33
45 -22 55 -47 26 -70 -18 -15 -19 -19 -7 -19 28 0 146 -58 210 -104 90 -64
246 -231 278 -297 46 -95 70 -209 72 -338 1 -116 1 -116 26 -119 36 -5 51 -22
48 -51 -3 -23 -7 -26 -40 -25 -44 1 -49 -14 -19 -52 16 -21 19 -36 15 -97 -3
-40 -12 -112 -20 -162 -9 -49 -19 -116 -24 -147 -5 -32 -11 -61 -13 -65 -3 -5
-10 -47 -17 -93 -13 -102 -51 -225 -93 -300 -38 -68 -97 -158 -97 -147 0 5 -7
1 -16 -8 -9 -9 -19 -13 -22 -10 -3 3 0 11 6 17 7 7 12 16 12 22 0 5 -9 0 -20
-12 -12 -13 -17 -28 -13 -38 4 -11 3 -15 -5 -10 -6 3 -17 -3 -25 -15 -17 -24
-79 -59 -105 -59 -10 0 -22 -4 -27 -9 -13 -13 -206 4 -215 19 -4 6 -20 14 -36
19 -19 5 -30 15 -32 29 -2 12 -9 19 -16 16 -14 -6 -79 69 -90 104 -4 12 -11
22 -16 22 -4 0 -11 10 -15 23 -4 13 -8 17 -12 10 -8 -20 -32 -15 -26 5 5 23
-29 118 -42 115 -6 -2 -11 -6 -11 -10 -11 -58 -44 -74 -44 -20 0 89 42 147 93
128 37 -14 66 -49 95 -114 l25 -58 46 3 c41 3 46 6 45 27 -1 21 2 23 34 17 22
-3 44 -16 58 -33 18 -23 25 -26 35 -15 7 6 22 12 34 12 11 0 28 9 37 19 19 22
18 22 -82 36 -59 8 -110 24 -110 35 0 31 12 37 58 29 26 -4 83 -8 127 -8 44
-1 97 -6 119 -12 40 -11 86 -5 86 10 0 26 -68 43 -186 47 -67 2 -134 8 -149
14 -14 5 -42 10 -61 10 -19 0 -34 5 -34 11 0 5 -13 24 -30 42 -25 27 -32 30
-47 20 -26 -18 -105 -63 -110 -63 -2 0 -1 5 2 10 4 6 -1 22 -10 36 -15 24 -15
27 0 51 22 32 14 39 -25 20 -43 -22 -83 -8 -74 27 3 13 1 27 -4 30 -6 3 -13
41 -17 84 -5 47 -15 89 -26 108 -11 17 -19 41 -19 52 0 11 -4 23 -9 26 -5 3
-7 16 -4 27 5 19 11 21 52 15 25 -3 73 -9 106 -12 54 -6 58 -5 41 8 -18 14
-17 16 27 38 26 13 49 32 53 42 7 23 25 23 55 -1 13 -10 35 -21 49 -25 l25 -7
-24 20 c-21 19 -22 21 -4 21 11 0 28 -9 37 -19 17 -19 17 -21 -12 -58 -39 -50
-45 -73 -32 -123 10 -38 9 -45 -16 -88 -39 -66 -39 -130 -1 -167 15 -15 27
-37 27 -47 0 -18 5 -20 44 -14 25 4 73 2 107 -4 60 -11 63 -11 83 13 12 14 30
28 41 31 25 7 85 61 85 75 0 18 -16 13 -48 -14 -17 -14 -40 -25 -52 -25 -26 0
-93 68 -86 87 3 7 -1 13 -9 13 -16 0 -14 33 7 102 11 39 7 105 -15 224 -14 78
-66 163 -100 164 -10 0 -20 6 -23 14 -5 13 -96 34 -154 35 -55 1 -95 43 -63
66 14 10 15 16 5 28 -7 8 -9 23 -5 33 6 17 5 17 -10 5 -15 -12 -17 -11 -17 7
0 12 5 24 10 27 8 5 8 11 1 19 -6 7 -12 48 -13 90 -1 43 -6 80 -10 82 -5 3 -3
15 4 27 17 32 14 159 -6 198 -9 18 -16 38 -16 45 0 7 -8 10 -20 7 -13 -3 -22
1 -26 12 -5 13 -9 14 -15 4 -4 -7 -25 -14 -46 -15 -44 -1 -70 -11 -96 -32 -12
-11 -23 -13 -40 -5 -25 10 -57 6 -57 -8 0 -5 -11 -9 -25 -9 -13 0 -29 -8 -34
-17 -6 -10 -11 -14 -11 -10 0 5 -15 -2 -32 -15 -18 -13 -35 -21 -38 -18 -3 3
-15 -15 -27 -39 -13 -25 -27 -49 -33 -55 -12 -12 -50 20 -50 44 0 10 -11 34
-25 54 -30 45 -30 44 -3 73 29 31 47 29 87 -8 26 -23 36 -27 42 -17 5 7 9 15
9 18 0 3 17 24 39 46 30 32 38 47 34 67 -7 36 34 61 85 54 42 -5 76 6 141 47
34 22 40 30 31 41 -15 18 -7 31 31 50 17 9 29 24 29 35 0 10 5 22 10 25 15 10
12 23 -9 34 -24 13 -82 -3 -106 -29 -10 -11 -34 -22 -54 -26 -20 -3 -53 -12
-75 -20 -34 -13 -41 -13 -63 1 -23 16 -26 15 -50 -9 -36 -36 -74 -34 -113 7
-17 17 -29 41 -28 51 3 22 80 65 116 66 12 0 25 7 28 15 4 8 17 15 30 15 13 0
24 4 24 9 0 13 53 19 120 15 30 -2 62 -4 70 -4z m1768 -34 c5 -6 11 -23 14
-38 5 -25 2 -27 -44 -33 -74 -10 -95 22 -48 73 20 21 61 20 78 -2z m-281 -10
c10 -13 23 -31 28 -40 9 -15 13 -15 53 0 45 18 58 14 64 -21 2 -15 -6 -22 -37
-33 -22 -7 -54 -19 -72 -27 -17 -8 -36 -15 -41 -15 -6 0 -8 -16 -5 -38 6 -45
-15 -73 -47 -65 -26 7 -40 32 -37 69 2 24 -2 29 -28 34 -30 5 -55 38 -55 73 0
12 8 17 28 17 19 0 39 11 62 35 40 41 62 44 87 11z m727 -30 c10 -53 -6 -80
-32 -54 -15 15 -15 29 -2 62 13 36 27 32 34 -8z m-1393 -19 c-13 -13 -31 0
-24 19 4 11 8 12 20 3 9 -8 10 -16 4 -22z m-1353 -59 c-2 -15 -11 -24 -25 -26
-19 -3 -23 1 -23 22 0 21 5 26 26 26 21 0 25 -4 22 -22z m-807 -12 c17 -36 3
-73 -32 -91 -40 -21 -83 -11 -109 25 -43 60 -17 85 93 89 31 1 39 -3 48 -23z
m428 -90 c8 -10 23 -13 45 -9 46 7 66 -18 44 -55 -20 -32 -43 -39 -66 -20 -9
8 -36 21 -60 28 -39 12 -45 12 -72 -8 -53 -40 -100 -26 -100 29 0 23 43 53 67
45 10 -3 36 1 58 8 41 14 61 10 84 -18z m572 -26 c-5 -50 -18 -70 -48 -70 -29
0 -52 25 -53 56 0 33 36 54 85 51 17 -2 19 -8 16 -37z m-1364 3 c9 -34 5 -60
-13 -95 -20 -40 -39 -35 -58 15 -20 53 -20 66 1 89 25 28 61 23 70 -9z m172
-7 c15 -8 33 -22 40 -30 8 -9 21 -16 30 -16 20 0 71 -46 71 -64 0 -24 -38 -48
-96 -62 -65 -15 -77 -11 -123 41 -72 82 -15 179 78 131z m3730 -121 c37 -19
45 -42 25 -72 -12 -20 -22 -24 -42 -19 -15 3 -53 11 -84 18 -42 9 -58 17 -58
29 0 22 17 35 60 47 50 14 67 14 99 -3z m-2677 -109 c6 -31 -7 -55 -30 -52
-23 4 -27 32 -7 62 18 28 31 25 37 -10z m235 -165 c3 -14 9 -28 13 -31 20 -16
40 -84 37 -129 -2 -34 1 -51 9 -51 13 0 28 -46 19 -60 -4 -6 -3 -10 2 -10 4 0
16 -14 26 -31 14 -26 15 -30 2 -25 -24 9 -18 -8 14 -38 26 -25 27 -30 17 -59
-14 -41 -25 -57 -37 -57 -14 0 -11 38 4 43 6 2 9 8 4 12 -10 12 -36 -25 -37
-52 0 -13 -8 -24 -20 -28 -21 -7 -26 -20 -11 -29 5 -3 9 -21 8 -40 0 -19 -4
-33 -7 -31 -3 2 -6 -18 -7 -43 0 -26 4 -50 10 -54 6 -3 12 -17 14 -29 5 -32
10 -35 32 -15 17 16 19 16 24 -4 3 -11 4 -32 2 -47 -2 -19 5 -33 22 -46 19
-15 24 -27 21 -48 -3 -21 0 -29 13 -31 16 -3 16 -6 -3 -48 -18 -39 -22 -42
-28 -25 -7 18 -9 17 -21 -10 -8 -16 -19 -36 -26 -43 -7 -7 -13 -20 -13 -28 0
-8 -16 -32 -36 -52 -41 -42 -57 -76 -49 -103 4 -11 4 -19 2 -19 -5 0 -29 73
-42 125 -13 54 -41 381 -35 406 11 40 -6 197 -24 224 -18 28 -21 61 -5 70 5 4
8 19 5 33 -3 15 0 55 7 90 8 34 10 62 5 62 -17 0 4 94 33 152 5 10 5 20 -2 23
-7 5 -6 11 1 20 10 12 14 31 19 82 2 22 31 2 38 -26z m2528 -266 c0 -30 -39
-27 -43 3 -3 20 0 23 20 20 15 -2 23 -10 23 -23z m-2115 -29 c0 -21 -11 -46
-20 -46 -14 0 -20 44 -7 52 18 12 27 10 27 -6z m1234 -52 c8 -20 -1 -34 -20
-34 -8 0 -14 8 -14 18 0 33 23 44 34 16z m-2806 -39 c56 -7 122 -48 122 -76 0
-36 -19 -59 -49 -59 -38 0 -200 75 -208 96 -9 24 31 54 65 49 15 -2 46 -7 70
-10z m600 -21 c4 -27 -26 -40 -46 -20 -13 13 -13 18 -2 31 18 21 44 15 48 -11z
m782 -40 c0 -6 -7 -17 -15 -24 -9 -8 -15 -8 -15 -2 0 6 -3 17 -6 26 -4 11 0
14 15 13 12 -1 21 -6 21 -13z m2184 -16 c17 -28 -13 -52 -47 -39 -26 10 -36
39 -20 55 12 12 56 2 67 -16z m-2224 2 c0 -5 -4 -10 -10 -10 -5 0 -10 5 -10
10 0 6 5 10 10 10 6 0 10 -4 10 -10z m-367 -46 c-3 -8 -12 -14 -19 -14 -22 0
-32 -37 -39 -143 l-7 -99 -24 22 -23 23 19 38 c11 21 20 55 20 76 0 50 15 101
37 125 16 18 18 18 29 3 7 -9 10 -23 7 -31z m739 20 c47 -15 116 -69 105 -81
-4 -3 -18 2 -32 11 -31 20 -113 37 -121 25 -3 -5 7 -12 23 -15 16 -3 40 -14
53 -25 l25 -20 -35 15 c-19 8 -48 17 -63 21 -15 3 -25 10 -22 15 4 6 -10 10
-32 10 -47 0 -77 19 -68 42 12 31 76 31 167 2z m-746 -131 c-4 -21 -14 -65
-22 -98 l-14 -60 5 75 c6 87 13 120 27 120 7 0 8 -14 4 -37z m-897 -111 c38
-28 47 -47 33 -76 -10 -22 -18 -26 -52 -26 -32 0 -40 -4 -40 -18 0 -27 -20
-42 -55 -42 -36 0 -62 24 -74 66 -5 21 -14 30 -33 32 -27 3 -41 21 -30 39 16
24 76 45 111 39 20 -3 43 -1 51 4 19 13 58 4 89 -18z m858 -94 c-3 -8 -6 -5
-6 6 -1 11 2 17 5 13 3 -3 4 -12 1 -19z m22 -73 l0 -20 -9 20 c-5 11 -9 29 -9
40 l0 20 9 -20 c5 -11 9 -29 9 -40z m49 24 c-3 -8 -7 -3 -11 10 -4 17 -3 21 5
13 5 -5 8 -16 6 -23z m-1008 -193 c6 -8 10 -25 8 -38 -2 -19 -10 -24 -41 -26
-21 -2 -45 2 -53 9 -14 12 -19 51 -7 62 12 13 80 7 93 -7z m2956 -92 c8 -31
-6 -47 -37 -42 -43 6 -38 68 5 68 19 0 27 -7 32 -26z m-1466 -65 c-10 -37 -13
-40 -22 -25 -12 21 -1 88 15 98 17 11 20 -23 7 -73z m-1966 5 c9 -8 16 -21 16
-28 0 -8 7 -19 15 -26 8 -7 15 -26 15 -42 0 -23 -6 -32 -32 -42 -52 -22 -109
7 -123 65 -5 21 0 31 30 57 40 36 56 39 79 16z m-129 -10 c14 -6 14 -8 -1 -25
-28 -31 -64 -19 -50 16 6 16 24 19 51 9z m428 -32 c16 -27 17 -37 7 -61 -14
-35 -65 -73 -96 -73 -52 0 -67 39 -39 105 21 51 42 69 78 65 23 -2 36 -12 50
-36z m1572 19 c3 -5 1 -12 -5 -16 -5 -3 -10 1 -10 9 0 18 6 21 15 7z m-1284
-29 c7 -18 5 -22 -11 -22 -23 0 -34 15 -26 36 8 21 27 13 37 -14z m1095 -251
c5 -66 4 -92 -4 -87 -18 11 -32 104 -31 209 l1 102 14 -65 c7 -36 16 -107 20
-159z m-1452 70 c33 -37 3 -80 -47 -67 -47 11 -31 84 19 86 6 0 19 -9 28 -19z
m2491 -208 c-4 -21 -9 -132 -10 -248 -2 -226 -24 -375 -62 -432 -10 -16 -43
-80 -73 -143 -30 -63 -56 -117 -58 -119 -3 -6 -18 14 -89 113 -31 44 -70 86
-87 95 -33 18 -54 37 -76 69 -8 12 -23 25 -33 28 -10 3 -55 37 -99 75 -44 38
-84 69 -88 69 -5 0 -11 8 -15 18 -3 11 -30 47 -60 82 -53 61 -75 101 -37 67
20 -18 33 -22 31 -9 -6 36 2 44 39 38 20 -3 43 -5 49 -6 7 0 30 -15 50 -33 47
-41 69 -51 77 -31 4 10 13 13 32 8 23 -6 25 -4 23 17 -2 13 -1 24 3 24 3 0 14
8 25 17 12 11 40 18 83 20 58 3 62 5 40 15 l-25 11 26 10 c15 6 29 17 32 25 3
8 25 18 48 22 24 4 51 13 61 19 14 8 21 8 27 -3 11 -17 31 -6 31 18 0 10 11
28 24 40 13 13 27 35 31 49 7 30 65 111 79 112 4 0 5 -17 1 -37z m325 -279
c25 -9 51 -18 58 -20 7 -2 11 -8 7 -14 -3 -6 -25 -2 -55 10 -35 14 -50 16 -53
7 -2 -6 -6 -1 -9 11 -7 26 -6 26 52 6z m-1944 -20 c19 -15 19 -15 -1 -6 -11 5
-27 12 -35 15 -13 5 -13 6 1 6 8 1 24 -6 35 -15z m-398 -16 c16 -16 15 -53 -3
-68 -8 -6 -36 -12 -62 -13 -45 -2 -48 0 -48 23 0 16 11 31 34 47 38 26 61 29
79 11z m2317 -6 c9 -6 17 -42 10 -42 -1 0 -10 11 -19 25 -16 24 -12 32 9 17z
m-2000 -32 c3 -5 2 -10 -4 -10 -5 0 -13 5 -16 10 -3 6 -2 10 4 10 5 0 13 -4
16 -10z m2075 -39 c0 -9 27 -22 40 -20 3 0 18 -4 33 -10 41 -16 127 -23 127
-10 0 5 -16 17 -35 25 -19 8 -35 17 -35 20 0 6 112 -6 120 -13 2 -2 -2 -8 -9
-12 -11 -7 -8 -16 13 -43 31 -42 33 -52 5 -37 -22 11 -259 19 -259 8 0 -11 43
-114 52 -124 4 -5 8 -13 8 -19 0 -5 -13 9 -29 30 -15 21 -37 47 -49 57 -14 13
-19 27 -17 49 3 17 -2 43 -10 59 -14 26 -5 53 10 29 4 -6 11 -8 16 -4 5 3 7
10 4 15 -4 5 -1 9 4 9 6 0 11 -4 11 -9z m344 -60 c4 -5 21 -13 39 -17 17 -3
43 -15 56 -25 13 -11 30 -19 38 -19 8 0 68 -23 132 -50 91 -39 128 -61 161
-95 36 -37 42 -47 31 -57 -11 -11 -15 -9 -25 6 -38 62 -53 81 -66 81 -8 0 -15
-7 -14 -15 1 -9 -7 -17 -17 -17 -11 -1 -19 1 -19 5 0 4 -10 13 -21 21 -19 11
-21 11 -15 -4 3 -9 0 -23 -8 -31 -17 -16 -56 -19 -56 -3 0 6 -10 9 -22 8 -13
-2 -34 3 -48 10 -31 17 -90 79 -90 95 0 13 -14 30 -84 105 l-41 43 32 -16 c17
-9 34 -20 37 -25z m-2291 -2 c34 -17 80 -45 102 -62 22 -17 42 -32 44 -34 2
-2 1 -6 -2 -9 -4 -4 -13 -1 -22 6 -8 7 -56 29 -106 50 -52 21 -86 41 -80 45 9
5 9 10 0 21 -17 21 -5 18 64 -17z m1892 -49 c-3 -5 -23 -9 -43 -9 l-37 2 40 7
c22 4 41 8 43 9 2 0 0 -3 -3 -9z m-1978 -61 c45 -23 89 -49 99 -60 10 -11 -14
-2 -54 22 -39 23 -100 52 -134 65 -44 17 -53 23 -28 19 19 -3 72 -24 117 -46z
m2333 10 c0 -6 -4 -7 -10 -4 -5 3 -10 11 -10 16 0 6 5 7 10 4 6 -3 10 -11 10
-16z m-360 1 c0 -5 -4 -10 -9 -10 -6 0 -13 5 -16 10 -3 6 1 10 9 10 9 0 16 -4
16 -10z m-2082 -24 c22 -8 67 -36 99 -61 76 -62 79 -65 66 -65 -6 0 -18 6 -25
13 -17 17 -154 97 -165 97 -5 0 -18 7 -29 15 -16 12 -16 14 -3 15 9 0 35 -6
57 -14z m-27 -99 c20 -12 56 -40 80 -61 24 -22 33 -32 19 -23 -14 9 -55 35
-92 58 -38 23 -68 43 -68 45 0 10 29 2 61 -19z m2457 -43 c7 -14 8 -23 2 -19
-15 9 -32 45 -22 45 5 0 14 -12 20 -26z m-599 2 c10 -12 8 -13 -8 -9 -12 3
-21 9 -21 14 0 14 16 11 29 -5z m1223 -87 c15 -19 29 -47 32 -64 4 -16 3 -23
0 -15 -4 8 -29 39 -56 68 -26 30 -48 58 -48 64 0 16 41 -14 72 -53z m-222 21
c0 -5 -2 -10 -4 -10 -3 0 -8 5 -11 10 -3 6 -1 10 4 10 6 0 11 -4 11 -10z
m-3400 -79 c0 -13 -26 -32 -33 -24 -14 13 -6 33 13 33 11 0 20 -4 20 -9z
m2740 -47 c0 -8 -4 -14 -10 -14 -5 0 -10 9 -10 21 0 11 5 17 10 14 6 -3 10
-13 10 -21z m-2759 -255 c12 -41 10 -104 -3 -122 -16 -21 -110 -26 -133 -7 -8
7 -15 28 -15 49 0 28 7 43 31 64 17 15 38 27 48 27 9 0 23 5 31 10 21 14 33 7
41 -21z m3929 -337 c0 -15 -2 -15 -10 -2 -13 20 -13 33 0 25 6 -3 10 -14 10
-23z m25 -62 c3 -5 1 -10 -4 -10 -6 0 -11 5 -11 10 0 6 2 10 4 10 3 0 8 -4 11
-10z m65 -255 c12 -33 23 -68 25 -77 2 -9 8 -26 14 -37 18 -33 12 -38 -9 -6
-11 16 -22 42 -25 57 -4 14 -12 31 -19 37 -7 6 -13 30 -14 53 -2 51 1 48 28
-27z m-836 -114 c4 -5 -3 -7 -14 -4 -23 6 -26 13 -6 13 8 0 17 -4 20 -9z
m-1554 -11 c0 -5 -5 -10 -11 -10 -5 0 -7 5 -4 10 3 6 8 10 11 10 2 0 4 -4 4
-10z m64 -29 c3 -4 -4 -17 -15 -27 -21 -19 -21 -18 -8 9 13 30 15 31 23 18z
m1491 -21 c-3 -5 -14 -10 -23 -9 -14 0 -13 2 3 9 27 11 27 11 20 0z m971 -108
c21 -32 57 -83 81 -114 24 -32 56 -83 70 -114 29 -64 24 -90 -24 -121 -15 -9
-53 -36 -83 -58 -30 -23 -62 -45 -70 -50 -17 -9 66 66 87 78 15 9 18 73 3 82
-5 3 -10 14 -10 24 0 10 -11 46 -26 80 -14 35 -23 65 -21 67 8 8 77 -140 83
-178 4 -21 9 -38 12 -38 12 0 42 34 42 48 0 21 -68 158 -86 172 -8 7 -14 17
-14 22 0 18 -44 68 -61 68 -11 0 -22 15 -33 47 -19 56 -19 54 -1 47 8 -3 31
-31 51 -62z"/>
<path d="M2590 4760 c8 -5 20 -10 25 -10 6 0 3 5 -5 10 -8 5 -19 10 -25 10 -5
0 -3 -5 5 -10z"/>
<path d="M2892 3841 c-5 -4 -12 -14 -15 -25 -4 -11 -13 -16 -22 -12 -8 3 -15
1 -15 -5 0 -5 -11 -22 -25 -37 -31 -33 -32 -45 -2 -36 29 8 47 23 47 38 0 8
13 11 35 8 38 -5 165 26 165 39 0 17 -46 32 -102 34 -32 0 -62 -1 -66 -4z"/>
<path d="M2868 3708 c-29 -10 -59 -16 -65 -13 -7 2 -13 -2 -13 -9 0 -8 7 -16
15 -20 8 -3 15 -12 15 -21 0 -17 16 -20 25 -4 5 7 11 5 18 -4 7 -8 33 -18 60
-22 46 -6 48 -5 61 25 l13 31 25 -33 c18 -24 35 -34 57 -36 32 -2 32 -2 25 35
-11 61 -36 74 -156 87 -15 2 -51 -5 -80 -16z m160 -15 c45 -20 35 -27 -11 -8
-20 8 -51 15 -69 16 -26 0 -29 2 -13 8 23 9 46 5 93 -16z m-78 -23 c0 -5 -2
-10 -4 -10 -3 0 -8 5 -11 10 -3 6 -1 10 4 10 6 0 11 -4 11 -10z"/>
<path d="M1911 4044 c0 -11 3 -14 6 -6 3 7 2 16 -1 19 -3 4 -6 -2 -5 -13z"/>
<path d="M1882 4030 c3 -8 1 -22 -3 -32 -6 -11 -4 -18 5 -21 20 -8 27 40 8 55
-13 11 -14 10 -10 -2z"/>
<path d="M1960 3876 c0 -8 7 -16 15 -20 10 -4 15 1 15 14 0 11 -7 20 -15 20
-8 0 -15 -6 -15 -14z"/>
<path d="M4700 520 c0 -5 5 -10 11 -10 5 0 7 5 4 10 -3 6 -8 10 -11 10 -2 0
-4 -4 -4 -10z"/>
<path d="M23 4656 c-15 -7 -23 -20 -23 -36 0 -22 5 -26 28 -25 22 0 28 -5 30
-27 l3 -27 44 30 c23 16 48 29 54 29 6 0 11 5 11 10 0 6 -5 10 -11 10 -6 0
-23 8 -37 19 -36 24 -72 30 -99 17z"/>
<path d="M2 4190 c0 -14 2 -19 5 -12 2 6 2 18 0 25 -3 6 -5 1 -5 -13z"/>
</g>
</svg>
